<svg xmlns="http://www.w3.org/2000/svg" xmlns:xlink="http://www.w3.org/1999/xlink" width="300" zoomAndPan="magnify" viewBox="0 0 224.87999 149.999998" height="200" preserveAspectRatio="xMidYMid meet" version="1.0"><defs><g/><clipPath id="49ca0c7344"><path d="M 110.664062 113.714844 L 114.214844 113.714844 L 114.214844 117.265625 L 110.664062 117.265625 Z M 110.664062 113.714844 " clip-rule="nonzero"/></clipPath><clipPath id="3de554b84b"><path d="M 112.441406 113.714844 C 111.460938 113.714844 110.664062 114.507812 110.664062 115.488281 C 110.664062 116.46875 111.460938 117.265625 112.441406 117.265625 C 113.421875 117.265625 114.214844 116.46875 114.214844 115.488281 C 114.214844 114.507812 113.421875 113.714844 112.441406 113.714844 " clip-rule="nonzero"/></clipPath><clipPath id="ee98a3e6da"><path d="M 100.519531 33.863281 L 106.109375 33.863281 L 106.109375 39.457031 L 100.519531 39.457031 Z M 100.519531 33.863281 " clip-rule="nonzero"/></clipPath><clipPath id="4eddd175c6"><path d="M 103.316406 33.863281 C 101.769531 33.863281 100.519531 35.117188 100.519531 36.660156 C 100.519531 38.203125 101.769531 39.457031 103.316406 39.457031 C 104.859375 39.457031 106.109375 38.203125 106.109375 36.660156 C 106.109375 35.117188 104.859375 33.863281 103.316406 33.863281 " clip-rule="nonzero"/></clipPath><clipPath id="fb1e360127"><path d="M 4.332031 14.636719 L 75.195312 14.636719 L 75.195312 85.746094 L 4.332031 85.746094 Z M 4.332031 14.636719 " clip-rule="nonzero"/></clipPath><clipPath id="fb907389a7"><path d="M 48.304688 8.792969 L 79.433594 8.792969 L 79.433594 40 L 48.304688 40 Z M 48.304688 8.792969 " clip-rule="nonzero"/></clipPath><clipPath id="028504ef78"><path d="M 162.53125 74.609375 L 223.15625 74.609375 L 223.15625 134.816406 L 162.53125 134.816406 Z M 162.53125 74.609375 " clip-rule="nonzero"/></clipPath><clipPath id="cd5a1fadc8"><path d="M 156.917969 109 L 175 109 L 175 128 L 156.917969 128 Z M 156.917969 109 " clip-rule="nonzero"/></clipPath><clipPath id="ba1092df06"><path d="M 200.148438 69.664062 L 224.761719 69.664062 L 224.761719 96.101562 L 200.148438 96.101562 Z M 200.148438 69.664062 " clip-rule="nonzero"/></clipPath></defs><g clip-path="url(#49ca0c7344)"><g clip-path="url(#3de554b84b)"><path fill="#f6f5f2" d="M 110.664062 113.714844 L 114.214844 113.714844 L 114.214844 117.265625 L 110.664062 117.265625 Z M 110.664062 113.714844 " fill-opacity="1" fill-rule="nonzero"/></g></g><g clip-path="url(#ee98a3e6da)"><g clip-path="url(#4eddd175c6)"><path fill="#f6f5f2" d="M 100.519531 33.863281 L 106.109375 33.863281 L 106.109375 39.457031 L 100.519531 39.457031 Z M 100.519531 33.863281 " fill-opacity="1" fill-rule="nonzero"/></g></g><g clip-path="url(#fb1e360127)"><path fill="#69919e" d="M 39.71875 14.710938 C 38.796875 48.558594 38.050781 49.304688 4.378906 50.230469 C 38.050781 51.15625 38.796875 51.90625 39.71875 85.75 C 40.636719 51.90625 41.382812 51.15625 75.058594 50.230469 C 41.382812 49.304688 40.636719 48.558594 39.71875 14.710938 " fill-opacity="1" fill-rule="nonzero"/></g><path fill="#69919e" d="M 7.984375 56.226562 C 7.71875 65.988281 7.503906 66.203125 -2.207031 66.46875 C 7.503906 66.738281 7.71875 66.953125 7.984375 76.714844 C 8.25 66.953125 8.464844 66.738281 18.175781 66.46875 C 8.464844 66.203125 8.25 65.988281 7.984375 56.226562 " fill-opacity="1" fill-rule="nonzero"/><g clip-path="url(#fb907389a7)"><path fill="#69919e" d="M 63.953125 39.917969 C 64.355469 25.085938 64.679688 24.757812 79.433594 24.355469 C 64.679688 23.949219 64.355469 23.621094 63.953125 8.792969 C 63.546875 23.621094 63.222656 23.949219 48.46875 24.355469 C 63.222656 24.757812 63.546875 25.085938 63.953125 39.917969 " fill-opacity="1" fill-rule="nonzero"/></g><g clip-path="url(#028504ef78)"><path fill="#80a0a8" d="M 192.804688 74.675781 C 192.015625 103.328125 191.378906 103.964844 162.570312 104.746094 C 191.378906 105.527344 192.015625 106.164062 192.804688 134.816406 C 193.589844 106.164062 194.230469 105.527344 223.039062 104.746094 C 194.230469 103.964844 193.589844 103.328125 192.804688 74.675781 " fill-opacity="1" fill-rule="nonzero"/></g><g clip-path="url(#cd5a1fadc8)"><path fill="#80a0a8" d="M 165.652344 109.824219 C 165.425781 118.085938 165.242188 118.269531 156.933594 118.496094 C 165.242188 118.722656 165.425781 118.902344 165.652344 127.167969 C 165.878906 118.902344 166.0625 118.722656 174.371094 118.496094 C 166.0625 118.269531 165.878906 118.085938 165.652344 109.824219 " fill-opacity="1" fill-rule="nonzero"/></g><g clip-path="url(#ba1092df06)"><path fill="#80a0a8" d="M 213.535156 96.015625 C 213.882812 83.460938 214.160156 83.179688 226.78125 82.839844 C 214.160156 82.496094 213.882812 82.21875 213.535156 69.664062 C 213.191406 82.21875 212.910156 82.496094 200.289062 82.839844 C 212.910156 83.179688 213.191406 83.460938 213.535156 96.015625 " fill-opacity="1" fill-rule="nonzero"/></g><g fill="#c15b75" fill-opacity="1"><g transform="translate(43.1617, 73.943073)"><g><path d="M 6.742188 0 C 9.085938 0 12.152344 -1.660156 13.84375 -7.28125 C 14.277344 -8.6875 15.503906 -8.617188 15.289062 -7.28125 C 14.421875 -1.765625 16.730469 0 19.179688 0 C 28.589844 0 24.769531 -20.15625 31.835938 -20.15625 C 33.0625 -20.15625 33.027344 -19.433594 34.863281 -19.433594 C 40.34375 -19.433594 40.851562 -27.546875 34.109375 -27.546875 C 29.421875 -27.546875 25.742188 -23.796875 22.929688 -14.675781 C 21.847656 -11.25 21.128906 -8.402344 19.722656 -8.402344 C 18.894531 -8.402344 18.207031 -10.457031 19.179688 -15.289062 C 19.867188 -18.566406 22.210938 -20.839844 22.210938 -23.398438 C 22.210938 -25.167969 20.695312 -26.105469 19.109375 -26.105469 C 15.898438 -26.105469 15.9375 -22.425781 14.207031 -16.296875 C 12.65625 -10.707031 11.609375 -8.402344 10.277344 -8.402344 C 8.402344 -8.402344 9.085938 -11.285156 11.320312 -20.910156 C 12.1875 -24.589844 11.753906 -26.824219 6.527344 -26.824219 C -1.046875 -26.824219 -6.453125 -22.28125 -6.453125 -16.910156 C -6.453125 -14.132812 -4.902344 -11.609375 -1.945312 -11.609375 C 1.550781 -11.609375 3.425781 -14.710938 2.777344 -16.296875 C 1.984375 -16.296875 1.40625 -17.089844 1.40625 -18.101562 C 1.40625 -20.371094 4.21875 -21.992188 7.425781 -21.054688 C 3.859375 -14.492188 2.558594 -9.734375 2.558594 -6.417969 C 2.558594 -1.839844 4.652344 0 6.742188 0 Z M 6.742188 0 "/></g></g></g><g fill="#c15b75" fill-opacity="1"><g transform="translate(70.921001, 73.943073)"><g><path d="M 3.820312 0 C 6.382812 0 8.546875 -2.34375 9.988281 -5.265625 L 10.132812 -5.265625 C 9.699219 -2.269531 10.746094 0 13.230469 0 C 17.234375 0 19.21875 -5.625 20.984375 -8.976562 C 21.34375 -9.664062 19.902344 -10.746094 19.363281 -9.878906 C 18.640625 -8.726562 17.738281 -8.039062 16.511719 -8.039062 C 14.925781 -8.039062 14.53125 -9.484375 15.757812 -12.113281 C 16.550781 -14.207031 17.488281 -15.324219 17.488281 -16.695312 C 17.488281 -17.488281 17.164062 -18.027344 16.226562 -18.027344 C 14.53125 -18.027344 14.277344 -16.65625 13.089844 -16.65625 C 12.152344 -16.65625 12.292969 -18.027344 9.410156 -18.027344 C 3.207031 -18.027344 0.109375 -10.457031 0.109375 -5.445312 C 0.109375 -2.234375 1.371094 0 3.820312 0 Z M 7.425781 -7.464844 C 6.308594 -7.464844 5.625 -8.183594 5.625 -9.410156 C 5.625 -10.996094 6.8125 -12.761719 8.6875 -12.761719 C 9.84375 -12.761719 10.5625 -12.042969 10.5625 -10.851562 C 10.5625 -9.339844 9.300781 -7.464844 7.425781 -7.464844 Z M 7.425781 -7.464844 "/></g></g></g><g fill="#c15b75" fill-opacity="1"><g transform="translate(89.451235, 73.943073)"><g><path d="M 2.453125 0 C 4.832031 0 5.300781 -1.984375 5.300781 -3.820312 L 5.300781 -6.5625 C 5.300781 -8.761719 7.28125 -8.941406 7.535156 -7.101562 C 8.21875 -2.128906 9.195312 0 11.683594 0 C 16.765625 0 19.363281 -6.957031 20.515625 -8.976562 C 20.910156 -9.664062 19.722656 -11.140625 18.894531 -9.878906 C 17.992188 -8.472656 16.1875 -8.039062 14.097656 -8.039062 C 12.113281 -8.039062 10.851562 -8.726562 10.851562 -9.914062 C 10.851562 -10.78125 11.355469 -11.5 12.582031 -11.539062 C 15.539062 -11.539062 17.054688 -12.761719 17.054688 -15.214844 C 17.054688 -16.65625 16.042969 -18.027344 13.882812 -18.027344 C 11.285156 -18.027344 9.625 -16.007812 8.148438 -12.65625 C 7.714844 -11.683594 5.949219 -11.683594 6.164062 -12.871094 C 6.851562 -16.332031 8.652344 -19.613281 9.953125 -22.535156 C 10.996094 -24.84375 10.5625 -25.921875 9.085938 -25.921875 C 6.164062 -25.921875 4.507812 -20.40625 0.867188 -9.878906 C 0.144531 -7.824219 -0.359375 -5.550781 -0.359375 -3.714844 C -0.359375 -1.585938 0.359375 0 2.453125 0 Z M 2.453125 0 "/></g></g></g><g fill="#c15b75" fill-opacity="1"><g transform="translate(107.512806, 73.943073)"><g><path d="M 6.777344 0 C 10.960938 0 14.78125 -3.101562 17.957031 -8.976562 C 18.351562 -9.664062 16.910156 -10.746094 16.332031 -9.878906 C 14.710938 -7.390625 11.789062 -6.128906 9.339844 -6.128906 C 7.28125 -6.128906 5.589844 -6.777344 5.589844 -8.039062 C 5.589844 -8.507812 5.949219 -8.617188 6.203125 -8.472656 C 7.03125 -8.003906 8.003906 -7.894531 9.015625 -7.894531 C 12.546875 -7.894531 14.820312 -10.851562 14.820312 -13.484375 C 14.820312 -15.863281 13.339844 -18.027344 9.988281 -18.027344 C -0.359375 -18.027344 -3.351562 0 6.777344 0 Z M 8.078125 -10.601562 C 6.921875 -10.601562 6.382812 -11.285156 6.382812 -12.078125 C 6.382812 -13.050781 7.246094 -14.097656 8.652344 -14.097656 C 9.769531 -14.097656 10.3125 -13.414062 10.3125 -12.621094 C 10.3125 -11.71875 9.484375 -10.601562 8.078125 -10.601562 Z M 8.078125 -10.601562 "/></g></g></g><g fill="#c15b75" fill-opacity="1"><g transform="translate(123.014752, 73.943073)"><g/></g></g><g fill="#c15b75" fill-opacity="1"><g transform="translate(135.993128, 73.943073)"><g><path d="M 18.855469 -9.878906 C 18.136719 -8.796875 17.449219 -8.039062 16.367188 -8.039062 C 15.394531 -8.039062 14.53125 -8.652344 14.53125 -10.023438 C 14.53125 -11.824219 16.152344 -14.566406 16.152344 -16.585938 C 16.152344 -17.632812 15.757812 -18.027344 15.035156 -18.027344 C 13.195312 -18.027344 11.71875 -15.46875 10.238281 -10.746094 L 10.203125 -10.601562 C 9.589844 -8.796875 8.472656 -8.078125 7.175781 -8.078125 C 5.984375 -8.078125 5.660156 -8.6875 5.660156 -9.699219 C 5.660156 -11.824219 7.28125 -14.242188 7.28125 -16.585938 C 7.28125 -17.523438 6.957031 -18.027344 6.164062 -18.027344 C 4.144531 -18.027344 2.488281 -15.144531 0.828125 -9.878906 C 0.109375 -7.535156 0.0351562 -5.410156 0.0351562 -4.328125 C 0.0351562 -1.371094 1.261719 -0.0351562 3.207031 -0.0351562 C 6.019531 -0.0351562 7.824219 -2.847656 9.015625 -5.410156 C 8.941406 -4.867188 8.90625 -4.398438 8.90625 -3.929688 C 8.90625 -1.371094 9.878906 0 12.007812 0 C 16.875 0 19.324219 -6.996094 20.480469 -8.976562 C 20.875 -9.664062 19.433594 -10.746094 18.855469 -9.878906 Z M 18.855469 -9.878906 "/></g></g></g><g fill="#c15b75" fill-opacity="1"><g transform="translate(154.018654, 73.943073)"><g><path d="M 18.425781 -9.878906 C 17.558594 -8.617188 16.585938 -8.113281 15.539062 -8.113281 C 15.972656 -9.519531 16.226562 -10.996094 16.226562 -12.546875 C 16.226562 -15.9375 14.351562 -18.027344 11.5 -18.027344 C 10.382812 -18.027344 9.230469 -17.8125 7.96875 -16.585938 C 7.390625 -16.007812 6.707031 -16.261719 6.8125 -16.800781 C 6.921875 -17.449219 6.632812 -18.027344 5.371094 -18.027344 C 3.535156 -18.027344 3.171875 -16.765625 0.828125 -9.878906 C 0.324219 -8.4375 -0.179688 -7.066406 -0.648438 -5.804688 C -2.488281 -1.082031 -4.144531 2.523438 -4.144531 4.722656 C -4.144531 6.308594 -3.425781 7.210938 -1.621094 7.210938 C 0.9375 7.210938 1.910156 1.226562 2.992188 -4.039062 C 3.171875 -4.941406 4.144531 -4.867188 4.003906 -4.039062 C 3.535156 -1.152344 5.121094 0 7.175781 0 C 9.484375 0 11.824219 -1.585938 13.519531 -4.039062 L 13.738281 -4.039062 C 17.234375 -4.039062 19 -6.777344 20.046875 -8.976562 C 20.441406 -9.808594 18.855469 -10.492188 18.425781 -9.878906 Z M 7.859375 -7.464844 C 6.488281 -7.464844 5.984375 -8.363281 5.984375 -9.410156 C 5.984375 -10.996094 7.175781 -12.761719 8.941406 -12.761719 C 10.347656 -12.761719 10.925781 -11.898438 10.925781 -10.851562 C 10.925781 -9.339844 9.664062 -7.464844 7.859375 -7.464844 Z M 7.859375 -7.464844 "/></g></g></g><g fill="#e89995" fill-opacity="1"><g transform="translate(41.886861, 72.668233)"><g><path d="M 6.742188 0 C 9.085938 0 12.152344 -1.660156 13.84375 -7.28125 C 14.277344 -8.6875 15.503906 -8.617188 15.289062 -7.28125 C 14.421875 -1.765625 16.730469 0 19.179688 0 C 28.589844 0 24.769531 -20.15625 31.835938 -20.15625 C 33.0625 -20.15625 33.027344 -19.433594 34.863281 -19.433594 C 40.34375 -19.433594 40.851562 -27.546875 34.109375 -27.546875 C 29.421875 -27.546875 25.742188 -23.796875 22.929688 -14.675781 C 21.847656 -11.25 21.128906 -8.402344 19.722656 -8.402344 C 18.894531 -8.402344 18.207031 -10.457031 19.179688 -15.289062 C 19.867188 -18.566406 22.210938 -20.839844 22.210938 -23.398438 C 22.210938 -25.167969 20.695312 -26.105469 19.109375 -26.105469 C 15.898438 -26.105469 15.9375 -22.425781 14.207031 -16.296875 C 12.65625 -10.707031 11.609375 -8.402344 10.277344 -8.402344 C 8.402344 -8.402344 9.085938 -11.285156 11.320312 -20.910156 C 12.1875 -24.589844 11.753906 -26.824219 6.527344 -26.824219 C -1.046875 -26.824219 -6.453125 -22.28125 -6.453125 -16.910156 C -6.453125 -14.132812 -4.902344 -11.609375 -1.945312 -11.609375 C 1.550781 -11.609375 3.425781 -14.710938 2.777344 -16.296875 C 1.984375 -16.296875 1.40625 -17.089844 1.40625 -18.101562 C 1.40625 -20.371094 4.21875 -21.992188 7.425781 -21.054688 C 3.859375 -14.492188 2.558594 -9.734375 2.558594 -6.417969 C 2.558594 -1.839844 4.652344 0 6.742188 0 Z M 6.742188 0 "/></g></g></g><g fill="#e89995" fill-opacity="1"><g transform="translate(69.646161, 72.668233)"><g><path d="M 3.820312 0 C 6.382812 0 8.546875 -2.34375 9.988281 -5.265625 L 10.132812 -5.265625 C 9.699219 -2.269531 10.746094 0 13.230469 0 C 17.234375 0 19.21875 -5.625 20.984375 -8.976562 C 21.34375 -9.664062 19.902344 -10.746094 19.363281 -9.878906 C 18.640625 -8.726562 17.738281 -8.039062 16.511719 -8.039062 C 14.925781 -8.039062 14.53125 -9.484375 15.757812 -12.113281 C 16.550781 -14.207031 17.488281 -15.324219 17.488281 -16.695312 C 17.488281 -17.488281 17.164062 -18.027344 16.226562 -18.027344 C 14.53125 -18.027344 14.277344 -16.65625 13.089844 -16.65625 C 12.152344 -16.65625 12.292969 -18.027344 9.410156 -18.027344 C 3.207031 -18.027344 0.109375 -10.457031 0.109375 -5.445312 C 0.109375 -2.234375 1.371094 0 3.820312 0 Z M 7.425781 -7.464844 C 6.308594 -7.464844 5.625 -8.183594 5.625 -9.410156 C 5.625 -10.996094 6.8125 -12.761719 8.6875 -12.761719 C 9.84375 -12.761719 10.5625 -12.042969 10.5625 -10.851562 C 10.5625 -9.339844 9.300781 -7.464844 7.425781 -7.464844 Z M 7.425781 -7.464844 "/></g></g></g><g fill="#e89995" fill-opacity="1"><g transform="translate(88.176395, 72.668233)"><g><path d="M 2.453125 0 C 4.832031 0 5.300781 -1.984375 5.300781 -3.820312 L 5.300781 -6.5625 C 5.300781 -8.761719 7.28125 -8.941406 7.535156 -7.101562 C 8.21875 -2.128906 9.195312 0 11.683594 0 C 16.765625 0 19.363281 -6.957031 20.515625 -8.976562 C 20.910156 -9.664062 19.722656 -11.140625 18.894531 -9.878906 C 17.992188 -8.472656 16.1875 -8.039062 14.097656 -8.039062 C 12.113281 -8.039062 10.851562 -8.726562 10.851562 -9.914062 C 10.851562 -10.78125 11.355469 -11.5 12.582031 -11.539062 C 15.539062 -11.539062 17.054688 -12.761719 17.054688 -15.214844 C 17.054688 -16.65625 16.042969 -18.027344 13.882812 -18.027344 C 11.285156 -18.027344 9.625 -16.007812 8.148438 -12.65625 C 7.714844 -11.683594 5.949219 -11.683594 6.164062 -12.871094 C 6.851562 -16.332031 8.652344 -19.613281 9.953125 -22.535156 C 10.996094 -24.84375 10.5625 -25.921875 9.085938 -25.921875 C 6.164062 -25.921875 4.507812 -20.40625 0.867188 -9.878906 C 0.144531 -7.824219 -0.359375 -5.550781 -0.359375 -3.714844 C -0.359375 -1.585938 0.359375 0 2.453125 0 Z M 2.453125 0 "/></g></g></g><g fill="#e89995" fill-opacity="1"><g transform="translate(106.237967, 72.668233)"><g><path d="M 6.777344 0 C 10.960938 0 14.78125 -3.101562 17.957031 -8.976562 C 18.351562 -9.664062 16.910156 -10.746094 16.332031 -9.878906 C 14.710938 -7.390625 11.789062 -6.128906 9.339844 -6.128906 C 7.28125 -6.128906 5.589844 -6.777344 5.589844 -8.039062 C 5.589844 -8.507812 5.949219 -8.617188 6.203125 -8.472656 C 7.03125 -8.003906 8.003906 -7.894531 9.015625 -7.894531 C 12.546875 -7.894531 14.820312 -10.851562 14.820312 -13.484375 C 14.820312 -15.863281 13.339844 -18.027344 9.988281 -18.027344 C -0.359375 -18.027344 -3.351562 0 6.777344 0 Z M 8.078125 -10.601562 C 6.921875 -10.601562 6.382812 -11.285156 6.382812 -12.078125 C 6.382812 -13.050781 7.246094 -14.097656 8.652344 -14.097656 C 9.769531 -14.097656 10.3125 -13.414062 10.3125 -12.621094 C 10.3125 -11.71875 9.484375 -10.601562 8.078125 -10.601562 Z M 8.078125 -10.601562 "/></g></g></g><g fill="#e89995" fill-opacity="1"><g transform="translate(121.739913, 72.668233)"><g/></g></g><g fill="#e89995" fill-opacity="1"><g transform="translate(134.718289, 72.668233)"><g><path d="M 18.855469 -9.878906 C 18.136719 -8.796875 17.449219 -8.039062 16.367188 -8.039062 C 15.394531 -8.039062 14.53125 -8.652344 14.53125 -10.023438 C 14.53125 -11.824219 16.152344 -14.566406 16.152344 -16.585938 C 16.152344 -17.632812 15.757812 -18.027344 15.035156 -18.027344 C 13.195312 -18.027344 11.71875 -15.46875 10.238281 -10.746094 L 10.203125 -10.601562 C 9.589844 -8.796875 8.472656 -8.078125 7.175781 -8.078125 C 5.984375 -8.078125 5.660156 -8.6875 5.660156 -9.699219 C 5.660156 -11.824219 7.28125 -14.242188 7.28125 -16.585938 C 7.28125 -17.523438 6.957031 -18.027344 6.164062 -18.027344 C 4.144531 -18.027344 2.488281 -15.144531 0.828125 -9.878906 C 0.109375 -7.535156 0.0351562 -5.410156 0.0351562 -4.328125 C 0.0351562 -1.371094 1.261719 -0.0351562 3.207031 -0.0351562 C 6.019531 -0.0351562 7.824219 -2.847656 9.015625 -5.410156 C 8.941406 -4.867188 8.90625 -4.398438 8.90625 -3.929688 C 8.90625 -1.371094 9.878906 0 12.007812 0 C 16.875 0 19.324219 -6.996094 20.480469 -8.976562 C 20.875 -9.664062 19.433594 -10.746094 18.855469 -9.878906 Z M 18.855469 -9.878906 "/></g></g></g><g fill="#e89995" fill-opacity="1"><g transform="translate(152.743815, 72.668233)"><g><path d="M 18.425781 -9.878906 C 17.558594 -8.617188 16.585938 -8.113281 15.539062 -8.113281 C 15.972656 -9.519531 16.226562 -10.996094 16.226562 -12.546875 C 16.226562 -15.9375 14.351562 -18.027344 11.5 -18.027344 C 10.382812 -18.027344 9.230469 -17.8125 7.96875 -16.585938 C 7.390625 -16.007812 6.707031 -16.261719 6.8125 -16.800781 C 6.921875 -17.449219 6.632812 -18.027344 5.371094 -18.027344 C 3.535156 -18.027344 3.171875 -16.765625 0.828125 -9.878906 C 0.324219 -8.4375 -0.179688 -7.066406 -0.648438 -5.804688 C -2.488281 -1.082031 -4.144531 2.523438 -4.144531 4.722656 C -4.144531 6.308594 -3.425781 7.210938 -1.621094 7.210938 C 0.9375 7.210938 1.910156 1.226562 2.992188 -4.039062 C 3.171875 -4.941406 4.144531 -4.867188 4.003906 -4.039062 C 3.535156 -1.152344 5.121094 0 7.175781 0 C 9.484375 0 11.824219 -1.585938 13.519531 -4.039062 L 13.738281 -4.039062 C 17.234375 -4.039062 19 -6.777344 20.046875 -8.976562 C 20.441406 -9.808594 18.855469 -10.492188 18.425781 -9.878906 Z M 7.859375 -7.464844 C 6.488281 -7.464844 5.984375 -8.363281 5.984375 -9.410156 C 5.984375 -10.996094 7.175781 -12.761719 8.941406 -12.761719 C 10.347656 -12.761719 10.925781 -11.898438 10.925781 -10.851562 C 10.925781 -9.339844 9.664062 -7.464844 7.859375 -7.464844 Z M 7.859375 -7.464844 "/></g></g></g><g fill="#c15b75" fill-opacity="1"><g transform="translate(15.653557, 106.255018)"><g><path d="M 22.894531 -8.363281 C 21.707031 -8.363281 22.785156 -5.480469 19.035156 -5.480469 C 18.242188 -5.480469 17.488281 -5.625 16.765625 -5.878906 C 17.667969 -7.140625 18.640625 -9.265625 19.179688 -11.070312 C 19.832031 -10.816406 20.515625 -10.601562 21.273438 -10.601562 C 24.949219 -10.601562 26.5 -15.539062 24.878906 -15.539062 C 24.121094 -15.539062 23.652344 -14.53125 22.714844 -14.53125 C 21.453125 -14.53125 18.894531 -16.367188 16.910156 -16.367188 C 13.558594 -16.367188 12.257812 -10.996094 13.738281 -10.996094 C 14.457031 -10.996094 14.457031 -12.292969 15.828125 -12.292969 C 16.261719 -12.292969 16.730469 -12.152344 17.234375 -11.933594 C 16.550781 -10.457031 14.925781 -8.90625 13.519531 -8.183594 C 11.753906 -10.203125 10.601562 -13.089844 10.167969 -15.9375 C 16.152344 -16.945312 18.605469 -20.226562 18.605469 -23.003906 C 18.605469 -25.273438 17.125 -27.183594 14.207031 -27.183594 C 9.914062 -27.183594 8.003906 -23.472656 8.003906 -18.207031 L 8.003906 -17.414062 C 2.921875 -16.226562 0.398438 -11.824219 0.398438 -7.644531 C 0.398438 -2.882812 3.820312 0.46875 8.113281 0.46875 C 10.671875 0.46875 12.835938 -0.757812 14.421875 -2.414062 C 16.117188 -0.902344 18.101562 0 20.191406 0 C 24.121094 0 25.273438 -2.8125 25.273438 -5.082031 C 25.273438 -6.886719 23.867188 -8.363281 22.894531 -8.363281 Z M 12.1875 -22.5 C 13.84375 -22.5 13.988281 -19.398438 10.023438 -17.917969 L 10.023438 -18.207031 C 10.023438 -21.632812 11.320312 -22.5 12.1875 -22.5 Z M 5.515625 -11.214844 C 5.515625 -13.050781 6.34375 -14.746094 8.148438 -15.539062 C 8.507812 -12.511719 9.445312 -9.589844 10.816406 -7.066406 C 7.535156 -6.164062 5.515625 -8.363281 5.515625 -11.214844 Z M 5.515625 -11.214844 "/></g></g></g><g fill="#c15b75" fill-opacity="1"><g transform="translate(40.889288, 106.255018)"><g/></g></g><g fill="#c15b75" fill-opacity="1"><g transform="translate(53.867664, 106.255018)"><g><path d="M 4.796875 1.515625 C 8.507812 1.515625 11.609375 -0.828125 13.628906 -4.578125 C 13.808594 -1.585938 15.613281 0.359375 18.605469 0.359375 C 24.375 0.359375 29.386719 -7.644531 29.386719 -15.324219 C 29.386719 -21.453125 26.285156 -26.824219 17.089844 -26.824219 C 8.832031 -26.824219 3.027344 -21.597656 3.027344 -15.429688 C 3.027344 -12.691406 4.578125 -10.167969 7.535156 -10.167969 C 11.03125 -10.167969 13.269531 -14.710938 12.257812 -14.855469 C 11.464844 -14.855469 10.886719 -15.648438 10.886719 -16.695312 C 10.886719 -20.40625 14.242188 -21.992188 17.632812 -21.992188 C 22.605469 -21.992188 24.011719 -19.289062 24.011719 -16.226562 C 24.011719 -11.96875 21.742188 -7.101562 18.605469 -7.101562 C 17.378906 -7.101562 16.875 -7.824219 16.875 -8.761719 C 16.875 -10.925781 19.542969 -15.9375 20.046875 -18.28125 C 20.300781 -19.46875 19.972656 -20.226562 18.460938 -20.226562 C 17.378906 -20.226562 16.585938 -19.757812 16.117188 -18.496094 C 15.503906 -16.945312 14.820312 -15.105469 14.207031 -13.484375 C 12.511719 -9.15625 9.664062 -7.320312 7.425781 -7.320312 C 5.445312 -7.320312 3.894531 -8.402344 3.894531 -9.988281 C 3.894531 -10.238281 3.640625 -10.417969 3.351562 -10.417969 C 0.46875 -10.417969 -1.441406 -7.5 -1.441406 -4.542969 C -1.441406 -1.550781 0.359375 1.515625 4.796875 1.515625 Z M 4.796875 1.515625 "/></g></g></g><g fill="#c15b75" fill-opacity="1"><g transform="translate(83.213209, 106.255018)"><g><path d="M 4.398438 1.515625 C 9.554688 1.515625 13.664062 -3.136719 15.9375 -9.265625 C 16.117188 -9.808594 16.332031 -10.09375 16.875 -10.09375 C 18.640625 -10.09375 18.496094 -6.671875 18.675781 -4.613281 C 18.929688 -1.335938 20.515625 0 22.535156 0 C 26.320312 0 29.855469 -4.613281 31.691406 -8.976562 C 31.980469 -9.699219 30.648438 -10.746094 30.070312 -9.878906 C 29.097656 -8.4375 28.195312 -7.464844 26.574219 -7.464844 C 25.167969 -7.464844 24.554688 -8.183594 24.011719 -9.15625 C 23.253906 -10.527344 22.570312 -10.382812 22.570312 -10.851562 C 22.570312 -11.105469 22.824219 -11.285156 23.832031 -11.429688 C 27.402344 -12.007812 29.566406 -15.035156 29.566406 -19.035156 C 29.566406 -23.90625 25.851562 -26.824219 17.957031 -26.824219 C 8.183594 -26.824219 2.128906 -21.019531 2.128906 -15.898438 C 2.128906 -13.269531 3.675781 -10.886719 6.632812 -10.886719 C 10.132812 -10.886719 12.007812 -13.988281 11.355469 -15.574219 C 10.5625 -15.574219 9.988281 -16.296875 9.988281 -17.269531 C 9.988281 -19.578125 12.546875 -21.992188 17.304688 -21.992188 C 20.984375 -21.992188 23.6875 -20.910156 23.6875 -17.992188 C 23.6875 -15.429688 21.667969 -13.484375 19.433594 -13.484375 C 18.566406 -13.484375 17.992188 -13.59375 18.0625 -14.457031 C 18.171875 -15.324219 18.53125 -16.511719 19.144531 -18.28125 C 19.503906 -19.46875 19.074219 -20.226562 17.558594 -20.226562 C 16.476562 -20.226562 15.683594 -19.757812 15.214844 -18.496094 C 14.601562 -16.945312 13.917969 -15.105469 13.304688 -13.484375 C 11.175781 -8.796875 8.90625 -7.320312 6.921875 -7.320312 C 5.226562 -7.320312 3.894531 -8.402344 3.894531 -9.988281 C 3.894531 -10.238281 3.640625 -10.417969 3.351562 -10.417969 C 0.46875 -10.417969 -1.441406 -7.5 -1.441406 -4.542969 C -1.441406 -1.550781 0.214844 1.515625 4.398438 1.515625 Z M 4.398438 1.515625 "/></g></g></g><g fill="#c15b75" fill-opacity="1"><g transform="translate(112.450599, 106.255018)"><g><path d="M 8.148438 0.433594 C 13.449219 0.433594 18.0625 -2.957031 21.054688 -8.976562 C 21.417969 -9.664062 20.011719 -10.746094 19.433594 -9.878906 C 18.242188 -8.078125 15.792969 -7.175781 13.015625 -7.175781 C 9.554688 -7.175781 7.644531 -8.183594 7.644531 -9.84375 C 7.644531 -10.886719 8.292969 -11.96875 9.300781 -12.222656 C 10.347656 -11.5 11.355469 -11.285156 12.332031 -11.285156 C 15.289062 -11.285156 16.65625 -12.292969 16.65625 -14.167969 C 16.65625 -15.105469 16.441406 -15.574219 15.828125 -15.574219 C 14.820312 -15.574219 13.449219 -15.214844 11.539062 -15.214844 C 10.601562 -15.648438 9.914062 -16.585938 9.914062 -17.773438 C 9.914062 -19.324219 10.960938 -20.875 13.449219 -20.875 C 15.792969 -20.875 16.332031 -19.503906 16.332031 -17.917969 C 16.332031 -17.488281 16.65625 -17.164062 17.269531 -17.164062 C 18.675781 -17.164062 20.011719 -18.820312 20.011719 -21.238281 C 20.011719 -23.292969 19.074219 -26.898438 13.628906 -26.898438 C 8.257812 -26.898438 4.796875 -24.011719 4.796875 -19.613281 C 4.796875 -17.488281 5.625 -16.082031 6.957031 -15.324219 C 7.390625 -15.070312 7.28125 -14.53125 6.742188 -14.492188 C 2.882812 -14.167969 0.433594 -11.214844 0.433594 -6.996094 C 0.433594 -2.199219 3.929688 0.433594 8.148438 0.433594 Z M 8.148438 0.433594 "/></g></g></g><g fill="#c15b75" fill-opacity="1"><g transform="translate(131.052934, 106.255018)"><g><path d="M 31.621094 -9.878906 C 30.933594 -8.832031 29.746094 -8.402344 28.664062 -8.402344 C 27.292969 -8.402344 26.824219 -9.445312 26.824219 -10.925781 C 26.824219 -12.292969 27.328125 -14.097656 27.761719 -15.613281 C 28.664062 -18.566406 29.566406 -19.722656 30.285156 -19.722656 C 30.789062 -19.757812 31.152344 -19.363281 31.621094 -19.363281 C 33.132812 -19.363281 34.324219 -21.273438 34.359375 -23.578125 C 34.359375 -25.5625 33.171875 -27.113281 30.648438 -27.113281 C 26.679688 -27.113281 21.957031 -24.480469 16.476562 -14.601562 C 16.152344 -14.027344 15.828125 -13.484375 15.503906 -12.945312 C 14.167969 -14.0625 13.484375 -15.574219 13.484375 -17.414062 C 13.484375 -20.046875 15.105469 -20.730469 16.511719 -20.585938 C 17.054688 -20.515625 17.34375 -20.910156 17.304688 -21.453125 C 17.304688 -23.148438 16.082031 -24.84375 13.339844 -24.84375 C 10.277344 -24.84375 7.535156 -22.75 7.535156 -18.964844 C 7.535156 -15.359375 9.84375 -12.257812 13.558594 -10.382812 C 11.933594 -8.507812 10.023438 -7.320312 7.789062 -7.320312 C 5.804688 -7.320312 4.253906 -8.402344 4.253906 -9.988281 C 4.253906 -10.238281 4.003906 -10.417969 3.714844 -10.417969 C 0.828125 -10.417969 -1.082031 -7.5 -1.082031 -4.542969 C -1.082031 -1.550781 0.902344 1.515625 5.839844 1.515625 C 9.734375 1.515625 13.375 -2.378906 15.863281 -6.671875 C 16.296875 -7.425781 16.730469 -8.257812 17.164062 -9.015625 C 18.53125 -8.6875 20.011719 -8.472656 21.5625 -8.402344 C 21.378906 -7.28125 21.273438 -6.273438 21.273438 -5.371094 C 21.273438 -2.414062 22.210938 0 24.769531 0 C 29.636719 0 32.089844 -6.996094 33.242188 -8.976562 C 33.640625 -9.664062 32.195312 -10.746094 31.621094 -9.878906 Z M 22.101562 -10.851562 C 20.730469 -10.925781 19.503906 -11.105469 18.460938 -11.429688 C 19.757812 -13.773438 21.054688 -16.042969 22.5 -17.917969 C 23.542969 -19.144531 23.976562 -19.398438 24.445312 -19.398438 C 24.699219 -19.398438 24.878906 -19.253906 24.878906 -18.894531 C 24.878906 -17.414062 23.542969 -15.898438 22.101562 -10.851562 Z M 22.101562 -10.851562 "/></g></g></g><g fill="#c15b75" fill-opacity="1"><g transform="translate(161.840523, 106.255018)"><g><path d="M 38.109375 -9.878906 C 37.316406 -8.6875 36.234375 -8.039062 35.152344 -8.039062 C 33.53125 -8.039062 32.953125 -9.085938 32.953125 -10.5625 C 32.953125 -12.761719 34.144531 -18.964844 35.945312 -18.964844 C 36.414062 -18.964844 36.738281 -18.566406 37.28125 -18.566406 C 38.542969 -18.566406 39.949219 -20.949219 39.949219 -23.109375 C 39.949219 -25.058594 38.902344 -26.824219 36.128906 -26.824219 C 32.125 -26.824219 27.582031 -21.992188 25.203125 -16.980469 C 24.589844 -22.96875 21.128906 -26.824219 14.855469 -26.824219 C 7.609375 -26.824219 2.957031 -21.957031 2.957031 -16.511719 C 2.957031 -13.125 5.046875 -10.886719 7.894531 -10.886719 C 11.105469 -10.886719 12.835938 -13.738281 12.1875 -15.214844 C 11.140625 -15.214844 10.347656 -16.1875 10.347656 -17.449219 C 10.347656 -19.722656 11.933594 -21.054688 13.664062 -21.054688 C 15.214844 -21.054688 16.152344 -20.011719 16.152344 -18.101562 C 16.152344 -14.207031 12.4375 -7.320312 7.390625 -7.320312 C 5.300781 -7.320312 3.75 -8.402344 3.75 -9.988281 C 3.75 -10.238281 3.496094 -10.417969 3.207031 -10.417969 C 0.324219 -10.417969 -1.585938 -7.5 -1.585938 -4.542969 C -1.585938 -1.550781 0.46875 1.515625 4.652344 1.515625 C 10.78125 1.515625 16.1875 -3.027344 18.566406 -14.746094 C 18.710938 -15.429688 19.074219 -15.757812 19.578125 -15.757812 C 20.046875 -15.757812 20.441406 -15.429688 20.441406 -14.027344 C 20.441406 -10.707031 18.351562 -6.671875 18.351562 -4.003906 C 18.351562 -2.523438 18.929688 -1.730469 21.199219 -1.730469 C 22.390625 -1.730469 23.6875 -2.199219 24.335938 -4.6875 C 26.679688 -13.808594 27.796875 -15.648438 29.058594 -15.648438 C 29.492188 -15.648438 29.746094 -15.394531 29.746094 -14.855469 C 29.746094 -13.414062 27.222656 -9.375 27.222656 -5.265625 C 27.222656 -1.984375 28.589844 0 31.257812 0 C 36.128906 0 38.578125 -6.996094 39.734375 -8.976562 C 39.40625 -9.664062 38.613281 -10.636719 38.109375 -9.878906 Z M 38.109375 -9.878906 "/></g></g></g><g fill="#e89995" fill-opacity="1"><g transform="translate(14.378718, 104.980178)"><g><path d="M 22.894531 -8.363281 C 21.707031 -8.363281 22.785156 -5.480469 19.035156 -5.480469 C 18.242188 -5.480469 17.488281 -5.625 16.765625 -5.878906 C 17.667969 -7.140625 18.640625 -9.265625 19.179688 -11.070312 C 19.832031 -10.816406 20.515625 -10.601562 21.273438 -10.601562 C 24.949219 -10.601562 26.5 -15.539062 24.878906 -15.539062 C 24.121094 -15.539062 23.652344 -14.53125 22.714844 -14.53125 C 21.453125 -14.53125 18.894531 -16.367188 16.910156 -16.367188 C 13.558594 -16.367188 12.257812 -10.996094 13.738281 -10.996094 C 14.457031 -10.996094 14.457031 -12.292969 15.828125 -12.292969 C 16.261719 -12.292969 16.730469 -12.152344 17.234375 -11.933594 C 16.550781 -10.457031 14.925781 -8.90625 13.519531 -8.183594 C 11.753906 -10.203125 10.601562 -13.089844 10.167969 -15.9375 C 16.152344 -16.945312 18.605469 -20.226562 18.605469 -23.003906 C 18.605469 -25.273438 17.125 -27.183594 14.207031 -27.183594 C 9.914062 -27.183594 8.003906 -23.472656 8.003906 -18.207031 L 8.003906 -17.414062 C 2.921875 -16.226562 0.398438 -11.824219 0.398438 -7.644531 C 0.398438 -2.882812 3.820312 0.46875 8.113281 0.46875 C 10.671875 0.46875 12.835938 -0.757812 14.421875 -2.414062 C 16.117188 -0.902344 18.101562 0 20.191406 0 C 24.121094 0 25.273438 -2.8125 25.273438 -5.082031 C 25.273438 -6.886719 23.867188 -8.363281 22.894531 -8.363281 Z M 12.1875 -22.5 C 13.84375 -22.5 13.988281 -19.398438 10.023438 -17.917969 L 10.023438 -18.207031 C 10.023438 -21.632812 11.320312 -22.5 12.1875 -22.5 Z M 5.515625 -11.214844 C 5.515625 -13.050781 6.34375 -14.746094 8.148438 -15.539062 C 8.507812 -12.511719 9.445312 -9.589844 10.816406 -7.066406 C 7.535156 -6.164062 5.515625 -8.363281 5.515625 -11.214844 Z M 5.515625 -11.214844 "/></g></g></g><g fill="#e89995" fill-opacity="1"><g transform="translate(39.614448, 104.980178)"><g/></g></g><g fill="#e89995" fill-opacity="1"><g transform="translate(52.592824, 104.980178)"><g><path d="M 4.796875 1.515625 C 8.507812 1.515625 11.609375 -0.828125 13.628906 -4.578125 C 13.808594 -1.585938 15.613281 0.359375 18.605469 0.359375 C 24.375 0.359375 29.386719 -7.644531 29.386719 -15.324219 C 29.386719 -21.453125 26.285156 -26.824219 17.089844 -26.824219 C 8.832031 -26.824219 3.027344 -21.597656 3.027344 -15.429688 C 3.027344 -12.691406 4.578125 -10.167969 7.535156 -10.167969 C 11.03125 -10.167969 13.269531 -14.710938 12.257812 -14.855469 C 11.464844 -14.855469 10.886719 -15.648438 10.886719 -16.695312 C 10.886719 -20.40625 14.242188 -21.992188 17.632812 -21.992188 C 22.605469 -21.992188 24.011719 -19.289062 24.011719 -16.226562 C 24.011719 -11.96875 21.742188 -7.101562 18.605469 -7.101562 C 17.378906 -7.101562 16.875 -7.824219 16.875 -8.761719 C 16.875 -10.925781 19.542969 -15.9375 20.046875 -18.28125 C 20.300781 -19.46875 19.972656 -20.226562 18.460938 -20.226562 C 17.378906 -20.226562 16.585938 -19.757812 16.117188 -18.496094 C 15.503906 -16.945312 14.820312 -15.105469 14.207031 -13.484375 C 12.511719 -9.15625 9.664062 -7.320312 7.425781 -7.320312 C 5.445312 -7.320312 3.894531 -8.402344 3.894531 -9.988281 C 3.894531 -10.238281 3.640625 -10.417969 3.351562 -10.417969 C 0.46875 -10.417969 -1.441406 -7.5 -1.441406 -4.542969 C -1.441406 -1.550781 0.359375 1.515625 4.796875 1.515625 Z M 4.796875 1.515625 "/></g></g></g><g fill="#e89995" fill-opacity="1"><g transform="translate(81.93837, 104.980178)"><g><path d="M 4.398438 1.515625 C 9.554688 1.515625 13.664062 -3.136719 15.9375 -9.265625 C 16.117188 -9.808594 16.332031 -10.09375 16.875 -10.09375 C 18.640625 -10.09375 18.496094 -6.671875 18.675781 -4.613281 C 18.929688 -1.335938 20.515625 0 22.535156 0 C 26.320312 0 29.855469 -4.613281 31.691406 -8.976562 C 31.980469 -9.699219 30.648438 -10.746094 30.070312 -9.878906 C 29.097656 -8.4375 28.195312 -7.464844 26.574219 -7.464844 C 25.167969 -7.464844 24.554688 -8.183594 24.011719 -9.15625 C 23.253906 -10.527344 22.570312 -10.382812 22.570312 -10.851562 C 22.570312 -11.105469 22.824219 -11.285156 23.832031 -11.429688 C 27.402344 -12.007812 29.566406 -15.035156 29.566406 -19.035156 C 29.566406 -23.90625 25.851562 -26.824219 17.957031 -26.824219 C 8.183594 -26.824219 2.128906 -21.019531 2.128906 -15.898438 C 2.128906 -13.269531 3.675781 -10.886719 6.632812 -10.886719 C 10.132812 -10.886719 12.007812 -13.988281 11.355469 -15.574219 C 10.5625 -15.574219 9.988281 -16.296875 9.988281 -17.269531 C 9.988281 -19.578125 12.546875 -21.992188 17.304688 -21.992188 C 20.984375 -21.992188 23.6875 -20.910156 23.6875 -17.992188 C 23.6875 -15.429688 21.667969 -13.484375 19.433594 -13.484375 C 18.566406 -13.484375 17.992188 -13.59375 18.0625 -14.457031 C 18.171875 -15.324219 18.53125 -16.511719 19.144531 -18.28125 C 19.503906 -19.46875 19.074219 -20.226562 17.558594 -20.226562 C 16.476562 -20.226562 15.683594 -19.757812 15.214844 -18.496094 C 14.601562 -16.945312 13.917969 -15.105469 13.304688 -13.484375 C 11.175781 -8.796875 8.90625 -7.320312 6.921875 -7.320312 C 5.226562 -7.320312 3.894531 -8.402344 3.894531 -9.988281 C 3.894531 -10.238281 3.640625 -10.417969 3.351562 -10.417969 C 0.46875 -10.417969 -1.441406 -7.5 -1.441406 -4.542969 C -1.441406 -1.550781 0.214844 1.515625 4.398438 1.515625 Z M 4.398438 1.515625 "/></g></g></g><g fill="#e89995" fill-opacity="1"><g transform="translate(111.175759, 104.980178)"><g><path d="M 8.148438 0.433594 C 13.449219 0.433594 18.0625 -2.957031 21.054688 -8.976562 C 21.417969 -9.664062 20.011719 -10.746094 19.433594 -9.878906 C 18.242188 -8.078125 15.792969 -7.175781 13.015625 -7.175781 C 9.554688 -7.175781 7.644531 -8.183594 7.644531 -9.84375 C 7.644531 -10.886719 8.292969 -11.96875 9.300781 -12.222656 C 10.347656 -11.5 11.355469 -11.285156 12.332031 -11.285156 C 15.289062 -11.285156 16.65625 -12.292969 16.65625 -14.167969 C 16.65625 -15.105469 16.441406 -15.574219 15.828125 -15.574219 C 14.820312 -15.574219 13.449219 -15.214844 11.539062 -15.214844 C 10.601562 -15.648438 9.914062 -16.585938 9.914062 -17.773438 C 9.914062 -19.324219 10.960938 -20.875 13.449219 -20.875 C 15.792969 -20.875 16.332031 -19.503906 16.332031 -17.917969 C 16.332031 -17.488281 16.65625 -17.164062 17.269531 -17.164062 C 18.675781 -17.164062 20.011719 -18.820312 20.011719 -21.238281 C 20.011719 -23.292969 19.074219 -26.898438 13.628906 -26.898438 C 8.257812 -26.898438 4.796875 -24.011719 4.796875 -19.613281 C 4.796875 -17.488281 5.625 -16.082031 6.957031 -15.324219 C 7.390625 -15.070312 7.28125 -14.53125 6.742188 -14.492188 C 2.882812 -14.167969 0.433594 -11.214844 0.433594 -6.996094 C 0.433594 -2.199219 3.929688 0.433594 8.148438 0.433594 Z M 8.148438 0.433594 "/></g></g></g><g fill="#e89995" fill-opacity="1"><g transform="translate(129.778095, 104.980178)"><g><path d="M 31.621094 -9.878906 C 30.933594 -8.832031 29.746094 -8.402344 28.664062 -8.402344 C 27.292969 -8.402344 26.824219 -9.445312 26.824219 -10.925781 C 26.824219 -12.292969 27.328125 -14.097656 27.761719 -15.613281 C 28.664062 -18.566406 29.566406 -19.722656 30.285156 -19.722656 C 30.789062 -19.757812 31.152344 -19.363281 31.621094 -19.363281 C 33.132812 -19.363281 34.324219 -21.273438 34.359375 -23.578125 C 34.359375 -25.5625 33.171875 -27.113281 30.648438 -27.113281 C 26.679688 -27.113281 21.957031 -24.480469 16.476562 -14.601562 C 16.152344 -14.027344 15.828125 -13.484375 15.503906 -12.945312 C 14.167969 -14.0625 13.484375 -15.574219 13.484375 -17.414062 C 13.484375 -20.046875 15.105469 -20.730469 16.511719 -20.585938 C 17.054688 -20.515625 17.34375 -20.910156 17.304688 -21.453125 C 17.304688 -23.148438 16.082031 -24.84375 13.339844 -24.84375 C 10.277344 -24.84375 7.535156 -22.75 7.535156 -18.964844 C 7.535156 -15.359375 9.84375 -12.257812 13.558594 -10.382812 C 11.933594 -8.507812 10.023438 -7.320312 7.789062 -7.320312 C 5.804688 -7.320312 4.253906 -8.402344 4.253906 -9.988281 C 4.253906 -10.238281 4.003906 -10.417969 3.714844 -10.417969 C 0.828125 -10.417969 -1.082031 -7.5 -1.082031 -4.542969 C -1.082031 -1.550781 0.902344 1.515625 5.839844 1.515625 C 9.734375 1.515625 13.375 -2.378906 15.863281 -6.671875 C 16.296875 -7.425781 16.730469 -8.257812 17.164062 -9.015625 C 18.53125 -8.6875 20.011719 -8.472656 21.5625 -8.402344 C 21.378906 -7.28125 21.273438 -6.273438 21.273438 -5.371094 C 21.273438 -2.414062 22.210938 0 24.769531 0 C 29.636719 0 32.089844 -6.996094 33.242188 -8.976562 C 33.640625 -9.664062 32.195312 -10.746094 31.621094 -9.878906 Z M 22.101562 -10.851562 C 20.730469 -10.925781 19.503906 -11.105469 18.460938 -11.429688 C 19.757812 -13.773438 21.054688 -16.042969 22.5 -17.917969 C 23.542969 -19.144531 23.976562 -19.398438 24.445312 -19.398438 C 24.699219 -19.398438 24.878906 -19.253906 24.878906 -18.894531 C 24.878906 -17.414062 23.542969 -15.898438 22.101562 -10.851562 Z M 22.101562 -10.851562 "/></g></g></g><g fill="#e89995" fill-opacity="1"><g transform="translate(160.565684, 104.980178)"><g><path d="M 38.109375 -9.878906 C 37.316406 -8.6875 36.234375 -8.039062 35.152344 -8.039062 C 33.53125 -8.039062 32.953125 -9.085938 32.953125 -10.5625 C 32.953125 -12.761719 34.144531 -18.964844 35.945312 -18.964844 C 36.414062 -18.964844 36.738281 -18.566406 37.28125 -18.566406 C 38.542969 -18.566406 39.949219 -20.949219 39.949219 -23.109375 C 39.949219 -25.058594 38.902344 -26.824219 36.128906 -26.824219 C 32.125 -26.824219 27.582031 -21.992188 25.203125 -16.980469 C 24.589844 -22.96875 21.128906 -26.824219 14.855469 -26.824219 C 7.609375 -26.824219 2.957031 -21.957031 2.957031 -16.511719 C 2.957031 -13.125 5.046875 -10.886719 7.894531 -10.886719 C 11.105469 -10.886719 12.835938 -13.738281 12.1875 -15.214844 C 11.140625 -15.214844 10.347656 -16.1875 10.347656 -17.449219 C 10.347656 -19.722656 11.933594 -21.054688 13.664062 -21.054688 C 15.214844 -21.054688 16.152344 -20.011719 16.152344 -18.101562 C 16.152344 -14.207031 12.4375 -7.320312 7.390625 -7.320312 C 5.300781 -7.320312 3.75 -8.402344 3.75 -9.988281 C 3.75 -10.238281 3.496094 -10.417969 3.207031 -10.417969 C 0.324219 -10.417969 -1.585938 -7.5 -1.585938 -4.542969 C -1.585938 -1.550781 0.46875 1.515625 4.652344 1.515625 C 10.78125 1.515625 16.1875 -3.027344 18.566406 -14.746094 C 18.710938 -15.429688 19.074219 -15.757812 19.578125 -15.757812 C 20.046875 -15.757812 20.441406 -15.429688 20.441406 -14.027344 C 20.441406 -10.707031 18.351562 -6.671875 18.351562 -4.003906 C 18.351562 -2.523438 18.929688 -1.730469 21.199219 -1.730469 C 22.390625 -1.730469 23.6875 -2.199219 24.335938 -4.6875 C 26.679688 -13.808594 27.796875 -15.648438 29.058594 -15.648438 C 29.492188 -15.648438 29.746094 -15.394531 29.746094 -14.855469 C 29.746094 -13.414062 27.222656 -9.375 27.222656 -5.265625 C 27.222656 -1.984375 28.589844 0 31.257812 0 C 36.128906 0 38.578125 -6.996094 39.734375 -8.976562 C 39.40625 -9.664062 38.613281 -10.636719 38.109375 -9.878906 Z M 38.109375 -9.878906 "/></g></g></g></svg>